Coordinates
version=1
nRows=4
nColumns=63
inDegrees=yes

Units are S.I. units (second, meters, Newtons, ...)
If the header above contains a line with 'inDegrees', this indicates whether rotational values are in degrees (yes) or radians (no).

endheader
time	pelvis_tilt	pelvis_list	pelvis_rotation	pelvis_tx	pelvis_ty	pelvis_tz	hip_flexion_r	hip_adduction_r	hip_rotation_r	knee_angle_r	knee_angle_r_beta	ankle_angle_r	subtalar_angle_r	mtp_angle_r	hip_flexion_l	hip_adduction_l	hip_rotation_l	knee_angle_l	knee_angle_l_beta	ankle_angle_l	subtalar_angle_l	mtp_angle_l	L5_S1_Flex_Ext	L5_S1_Lat_Bending	L5_S1_axial_rotation	L4_L5_Flex_Ext	L4_L5_Lat_Bending	L4_L5_axial_rotation	L3_L4_Flex_Ext	L3_L4_Lat_Bending	L3_L4_axial_rotation	L2_L3_Flex_Ext	L2_L3_Lat_Bending	L2_L3_axial_rotation	L1_L2_Flex_Ext	L1_L2_Lat_Bending	L1_L2_axial_rotation	L1_T12_Flex_Ext	L1_T12_Lat_Bending	L1_T12_axial_rotation	Abs_r3	Abs_r2	Abs_r1	Abs_t1	Abs_t2	neck_flexion	neck_bending	neck_rotation	arm_flex_r	arm_add_r	arm_rot_r	elbow_flex_r	pro_sup_r	wrist_flex_r	wrist_dev_r	arm_flex_l	arm_add_l	arm_rot_l	elbow_flex_l	pro_sup_l	wrist_flex_l	wrist_dev_l
      4.00800000	    -51.94145554	      1.16430889	      5.98899202	     -0.34758015	      0.97781812	      0.03650992	    100.16223316	    -11.52633871	     -2.29971849	     54.53273860	      0.95177584	     -3.62221488	      0.27976506	      0.00000000	    114.21664484	     -6.61169627	     -0.14921167	    111.44676795	      1.94511304	      4.33635700	      6.64515453	      0.00000000	     -0.09360132	     -0.48376619	     -0.93673499	     -0.17382701	     -0.64340903	     -0.99528093	     -0.15377761	     -1.17622911	     -0.99528093	     -0.10697695	     -1.17622911	     -0.81964312	     -0.08691818	     -0.98649601	     -0.76109718	     -0.05348379	     -0.74935382	     -0.70255124	     -0.66858486	     -5.47245986	     -5.20983901	      0.00000000	      0.00000000	      0.00000000	      0.00000000	      0.00000000	     65.54637523	     -7.46252161	     -5.45791995	     42.28205569	     52.82588873	      0.00000000	      4.99999788	     70.94573526	     -8.71614531	      4.80073556	     40.99845569	     58.14048482	      0.00000000	      4.99999788
      4.01700000	    -51.88355452	      1.97659107	      6.22035849	     -0.34698447	      0.97703615	      0.03638474	     98.03397419	    -11.77997495	     -2.22936051	     52.16875932	      0.91051662	     -4.05971025	      0.47058607	      0.00000000	    116.15292471	     -6.77566542	     -0.87988580	    113.38277640	      1.97890276	      5.15867372	      6.34803396	      0.00000000	     -0.09274967	     -0.61173822	     -0.96302618	     -0.17224541	     -0.81361183	     -1.02321531	     -0.15237844	     -1.48738030	     -1.02321531	     -0.10600360	     -1.48738030	     -0.84264790	     -0.08612734	     -1.24745658	     -0.78245877	     -0.05299716	     -0.94758250	     -0.72226963	     -0.66250163	     -6.92010508	     -5.35606268	      0.00000000	      0.00000000	      0.00000000	      0.00000000	      0.00000000	     65.11862621	     -7.50549864	     -5.70451222	     42.35452687	     52.78401833	      0.00000000	      4.99999791	     71.02203089	     -8.68073868	      5.05961458	     41.13946853	     58.16146286	      0.00000000	      4.99999791
      4.02500000	    -51.85814851	      2.82590188	      6.22907696	     -0.34648616	      0.97658564	      0.03649177	     96.00908573	    -11.83817484	     -2.11582229	     50.02408031	      0.87308491	     -4.46959335	      0.68897294	      0.00000000	    118.03561696	     -7.17078349	     -1.67465794	    114.96407458	      2.00650162	      5.99246111	      5.95005629	      0.00000000	     -0.09356605	     -0.74256608	     -0.94837561	     -0.17376151	     -0.98761288	     -1.00764908	     -0.15371967	     -1.80547516	     -1.00764908	     -0.10693664	     -1.80547516	     -0.82982866	     -0.08688544	     -1.51424075	     -0.77055518	     -0.05346364	     -1.15023485	     -0.71128171	     -0.66833295	     -8.40005598	     -5.27458062	      0.00000000	      0.00000000	      0.00000000	      0.00000000	      0.00000000	     64.70030672	     -7.52912552	     -6.07714705	     42.49074027	     52.71478824	      0.00000000	      4.99999795	     71.17895739	     -8.68396064	      5.45179836	     41.29888225	     58.17917936	      0.00000000	      4.99999795
      4.03300000	    -51.90082205	      4.24369096	      5.91445450	     -0.34595397	      0.97640200	      0.03751451	     94.39423694	    -11.49233304	     -1.01090037	     48.36068932	      0.84405326	     -4.98894114	      1.13951413	      0.00000000	    119.69238164	     -8.18037884	     -2.99164487	    116.23223094	      2.02863513	      6.59416831	      4.95244314	      0.00000000	     -0.09237125	     -0.95099160	     -0.85931595	     -0.17154265	     -1.26481883	     -0.91302320	     -0.15175672	     -2.31224098	     -0.91302320	     -0.10557110	     -2.31224098	     -0.75190146	     -0.08577594	     -1.93926207	     -0.69819421	     -0.05278093	     -1.47308599	     -0.64448696	     -0.65979859	    -10.75780718	     -4.77925752	      0.00000000	      0.00000000	      0.00000000	      0.00000000	      0.00000000	     64.02317792	     -7.09955273	     -8.00113005	     42.94997315	     52.43720916	      0.00000000	      4.99999811	     71.81255258	     -9.18249745	      7.90080345	     41.03838742	     58.52319622	      0.00000000	      4.99999811
